<svg xmlns="http://www.w3.org/2000/svg" viewBox="0 0 1600 900" role="img" aria-hidden="true">
<defs><linearGradient id="g" x1="0" y1="0" x2="1" y2="1"><stop stop-color="#1b0808"/><stop offset=".52" stop-color="#7f1d1d"/><stop offset="1" stop-color="#111827"/></linearGradient><radialGradient id="r" cx=".76" cy=".34"><stop stop-color="#ef4444" stop-opacity=".34"/><stop offset="1" stop-color="#ef4444" stop-opacity="0"/></radialGradient><pattern id="scratches" width="110" height="110" patternUnits="userSpaceOnUse"><path d="M12 98L98 12M52 110l58-58" stroke="#fecaca" stroke-opacity=".045" stroke-width="5"/></pattern></defs>
<rect width="1600" height="900" fill="url(#g)"/><rect width="1600" height="900" fill="url(#r)"/><rect width="1600" height="900" fill="url(#scratches)"/>
<g fill="none" stroke="#fee2e2" stroke-linecap="round" stroke-linejoin="round"><g transform="translate(1170 350)" stroke-width="8" stroke-opacity=".38"><circle r="245"/><circle r="152"/><circle r="62"/><path d="M0-315v142M0 173v142M-315 0h142M173 0h142"/></g>
<g transform="translate(315 330)" stroke-width="13" stroke-opacity=".46"><path d="M-135-145L160 150M160-145L-135 150"/><path d="M-170-178l96 24-72 72M195-178l-96 24 72 72"/><path d="M-154 170l-58 58M179 170l58 58"/></g>
<g stroke="#ef4444" stroke-width="7" stroke-opacity=".18"><path d="M0 735c210-100 370 75 580-15s420-95 630-8 265 50 390 15"/><path d="M80 790c220-70 385 70 595-10"/></g></g></svg>