<svg xmlns="http://www.w3.org/2000/svg" width="1200" height="760" viewBox="0 0 1200 760" role="img" aria-labelledby="title desc">
  <title id="title">Chroniques du Tavernier DB71 — en construction</title>
  <desc id="desc">Visuel temporaire pour les Chroniques du Tavernier DB71.</desc>
  <defs>
    <radialGradient id="g1" cx="76%" cy="18%" r="75%">
      <stop offset="0" stop-color="#1e9ed7" stop-opacity="0.38"/>
      <stop offset="0.34" stop-color="#0f172a" stop-opacity="0.96"/>
      <stop offset="1" stop-color="#050b14"/>
    </radialGradient>
    <linearGradient id="orange" x1="0" y1="0" x2="1" y2="0">
      <stop offset="0" stop-color="#f97316"/>
      <stop offset="1" stop-color="#facc15"/>
    </linearGradient>
    <filter id="glow" x="-30%" y="-30%" width="160%" height="160%">
      <feGaussianBlur stdDeviation="6" result="blur"/>
      <feMerge><feMergeNode in="blur"/><feMergeNode in="SourceGraphic"/></feMerge>
    </filter>
    <pattern id="grid" width="44" height="44" patternUnits="userSpaceOnUse">
      <path d="M44 0H0V44" fill="none" stroke="#38bdf8" stroke-width="1" opacity="0.08"/>
    </pattern>
  </defs>

  <rect width="1200" height="760" fill="url(#g1)"/>
  <rect width="1200" height="760" fill="url(#grid)" opacity="0.85"/>

  <path d="M42 28H230l28 26h684l20-20h194" fill="none" stroke="#38bdf8" stroke-width="2" opacity="0.62"/>
  <path d="M32 52v646h1136V52" fill="none" stroke="#1d4ed8" stroke-width="2" opacity="0.65"/>
  <path d="M32 690l26 26h1084l26-26" fill="none" stroke="#fb923c" stroke-width="3" opacity="0.9"/>
  <path d="M1136 36h28v28" fill="none" stroke="#fb923c" stroke-width="5"/>
  <path d="M36 36h28" fill="none" stroke="#22d3ee" stroke-width="5"/>

  <g opacity="0.18" stroke="#38bdf8" fill="none">
    <circle cx="1044" cy="110" r="55"/>
    <circle cx="1044" cy="110" r="32"/>
    <path d="M989 110h110M1044 55v110"/>
  </g>

  <g transform="translate(790 150)">
    <rect x="92" y="180" width="170" height="155" rx="18" fill="#0f172a" stroke="#38bdf8" stroke-width="3" opacity="0.9"/>
    <rect x="128" y="124" width="98" height="80" rx="16" fill="#172554" stroke="#60a5fa" stroke-width="3"/>
    <path d="M178 72l54 72H124z" fill="#1e40af" stroke="#7dd3fc" stroke-width="3"/>
    <rect x="154" y="214" width="48" height="86" rx="8" fill="#020617" stroke="#38bdf8"/>
    <path d="M177 46v62" stroke="#93c5fd" stroke-width="8" stroke-linecap="round"/>
    <circle cx="177" cy="38" r="15" fill="#f97316" filter="url(#glow)"/>
    <path d="M115 340h126l26 120H88z" fill="#111827" stroke="#334155" stroke-width="3"/>
    <path d="M42 398h286" stroke="#38bdf8" stroke-width="2" opacity="0.6"/>
  </g>

  <g transform="translate(130 138)">
    <rect x="0" y="0" width="520" height="390" rx="32" fill="#0b1220" opacity="0.66" stroke="#334155"/>
    <path d="M32 310c74-54 161-66 254-47 66 14 118 8 198-40" stroke="#22d3ee" stroke-width="3" opacity="0.12" fill="none"/>
    <text x="50" y="92" fill="#e5e7eb" font-size="40" font-weight="800" font-family="Arial, sans-serif">📜 Chroniques du Tavernier</text>
    <text x="50" y="150" fill="#fb923c" font-size="46" font-weight="900" font-family="Arial, sans-serif">DB71</text>
    <text x="50" y="226" fill="#7dd3fc" font-size="34" font-weight="800" font-family="Arial, sans-serif">🚧 En construction</text>
    <text x="50" y="282" fill="#cbd5e1" font-size="24" font-family="Arial, sans-serif">La plume chauffe, l’hydromel refroidit...</text>
    <text x="50" y="322" fill="#cbd5e1" font-size="24" font-family="Arial, sans-serif">Les récits arrivent bientôt.</text>
  </g>

  <g transform="translate(776 540)">
    <ellipse cx="100" cy="74" rx="98" ry="28" fill="#22d3ee" opacity="0.12"/>
    <path d="M66 34h76l-10 82H76z" fill="#7c2d12" stroke="#fb923c" stroke-width="4"/>
    <path d="M88 18h34l14 18H74z" fill="#92400e" stroke="#facc15" stroke-width="3"/>
    <circle cx="100" cy="72" r="25" fill="#f59e0b" opacity="0.92"/>
    <path d="M100 50v44M80 72h40" stroke="#431407" stroke-width="5" stroke-linecap="round"/>
  </g>
</svg>
